<?xml version="1.0" standalone="no"?>
<!DOCTYPE svg PUBLIC "-//W3C//DTD SVG 20010904//EN"
 "http://www.w3.org/TR/2001/REC-SVG-20010904/DTD/svg10.dtd">
<svg version="1.0" xmlns="http://www.w3.org/2000/svg"
 width="725.000000pt" height="725.000000pt" viewBox="0 0 725.000000 725.000000"
 preserveAspectRatio="xMidYMid meet">
<metadata>
Created by potrace 1.14, written by Peter Selinger 2001-2017
</metadata>
<g transform="translate(0.000000,725.000000) scale(0.100000,-0.100000)"
fill="#000000" stroke="none">
<path d="M0 6900 c0 -196 4 -350 9 -350 5 0 16 11 24 23 9 13 29 30 46 37 27
11 31 17 31 50 0 41 11 55 52 65 15 4 30 16 33 26 5 14 16 19 43 19 45 0 65
25 56 69 -5 25 -2 31 25 45 17 9 31 21 31 26 0 6 7 10 15 10 8 0 15 5 15 11 0
6 5 9 12 7 17 -6 53 33 53 58 1 12 14 33 31 47 16 14 36 37 44 52 13 25 13 28
-9 44 -24 18 -30 50 -17 89 l7 22 -250 0 -251 0 0 -350z"/>
<path d="M588 7243 c6 -2 18 -2 25 0 6 3 1 5 -13 5 -14 0 -19 -2 -12 -5z"/>
<path d="M1277 7243 c-4 -3 -7 -14 -7 -23 0 -31 -32 -81 -59 -92 -14 -6 -42
-14 -61 -17 -29 -5 -36 -12 -43 -41 -18 -68 -29 -87 -67 -116 -22 -16 -38 -35
-35 -42 5 -13 -23 -52 -38 -52 -4 0 -20 -13 -35 -29 -28 -29 -78 -51 -118 -51
-20 0 -24 -6 -29 -47 -8 -57 -24 -93 -45 -101 -30 -12 -74 -76 -66 -98 4 -10
-2 -14 -19 -14 -21 0 -25 -5 -26 -32 -3 -111 -7 -139 -25 -159 -25 -28 -67
-49 -98 -49 -14 0 -28 -5 -32 -12 -6 -9 -11 -119 -14 -288 0 -8 1 -54 2 -101
3 -90 16 -120 46 -113 19 5 58 -26 87 -71 19 -29 20 -48 20 -400 0 -203 4
-376 8 -382 5 -8 3 -13 -4 -13 -8 0 -9 -11 -4 -37 7 -39 30 -64 51 -56 7 2 17
-5 23 -16 7 -13 18 -18 29 -15 11 4 13 3 5 -3 -8 -6 -6 -19 9 -48 21 -43 25
-80 34 -315 8 -215 7 -213 33 -226 13 -7 28 -17 34 -23 6 -6 19 -11 29 -11 24
0 23 -18 -7 -74 -27 -52 -31 -66 -13 -48 9 9 18 6 40 -15 22 -21 32 -25 50
-17 13 5 38 8 56 6 26 -3 32 -7 32 -28 0 -13 5 -24 10 -24 6 0 10 -7 10 -15 0
-20 51 -40 60 -24 10 15 26 5 90 -54 32 -30 60 -48 74 -46 49 3 66 -1 66 -18
1 -28 25 -54 44 -47 9 3 16 1 16 -5 0 -8 5 -9 19 -1 25 13 108 13 113 0 5 -15
48 1 48 18 0 14 2 14 18 0 19 -18 169 -31 174 -16 6 16 60 -11 65 -33 5 -16
11 -19 32 -14 14 3 31 13 37 21 20 26 106 14 102 -15 -4 -24 39 -27 46 -3 4
11 17 23 30 26 13 3 31 8 39 11 8 4 29 -9 50 -30 29 -29 38 -34 42 -21 3 9 7
23 10 32 3 8 10 12 15 9 6 -4 9 -1 8 7 -2 9 7 12 34 10 27 -3 42 2 57 17 l21
21 0 -36 c0 -31 -2 -35 -15 -24 -8 6 -19 9 -25 5 -17 -10 -3 -22 29 -23 28 -1
29 2 36 54 3 30 11 54 16 54 5 0 9 5 9 11 0 10 37 49 47 49 2 0 12 -6 24 -12
17 -11 22 -10 35 6 8 11 14 17 14 13 0 -4 10 -1 23 7 31 21 63 10 77 -25 10
-23 19 -29 41 -29 19 0 29 5 29 15 0 7 8 19 18 25 16 10 16 10 0 20 -22 13
-23 43 -3 60 8 7 15 20 15 30 0 9 9 25 19 34 18 16 20 16 34 -4 13 -19 21 -21
59 -15 23 4 51 14 60 22 14 13 22 13 55 2 43 -15 62 -13 82 6 14 14 65 5 85
-15 15 -15 36 -12 30 4 -4 11 10 16 56 21 55 6 64 5 81 -14 25 -27 30 -26 59
4 23 24 60 34 60 16 0 -5 10 -13 23 -17 12 -4 25 -11 29 -17 4 -7 16 -1 32 14
23 22 24 25 9 41 -9 10 -22 18 -30 18 -7 0 -16 7 -19 15 -4 8 -15 15 -26 15
-25 0 -51 26 -44 45 6 16 26 21 26 6 0 -20 61 -4 90 24 28 27 90 44 90 25 0
-5 13 -18 30 -30 l29 -21 21 21 c11 11 25 18 30 15 6 -4 10 -1 10 4 0 17 27
13 34 -4 3 -8 10 -15 16 -15 12 0 75 -59 69 -63 -30 -21 -80 -31 -159 -33 -87
-1 -95 -3 -92 -20 7 -39 76 -62 88 -29 8 19 42 19 87 0 36 -15 51 -13 95 8 18
8 30 6 60 -11 28 -15 48 -19 77 -15 42 5 51 -2 68 -58 3 -9 23 -21 44 -26 27
-7 38 -14 36 -27 -1 -12 4 -15 14 -12 8 4 26 9 41 13 20 5 24 3 19 -10 -3 -8
3 -23 14 -33 10 -9 19 -26 19 -36 0 -17 7 -19 55 -17 40 2 59 -2 73 -14 10 -9
23 -17 29 -17 6 0 13 -5 15 -10 2 -6 26 -13 54 -16 42 -5 54 -12 70 -36 23
-37 51 -48 84 -36 16 6 26 6 28 -1 2 -6 14 -11 27 -11 13 0 26 -4 29 -9 4 -5
14 -8 24 -6 9 2 25 4 35 4 9 1 17 7 17 15 0 22 30 23 70 4 47 -22 140 -34 140
-18 0 8 15 10 48 7 33 -3 57 1 83 14 34 17 37 17 65 0 37 -22 104 -17 104 8 0
9 9 23 20 31 11 8 20 19 20 26 0 21 37 44 72 44 24 0 44 8 63 26 34 31 67 45
120 49 22 2 58 8 80 14 22 6 55 11 74 11 26 0 42 9 69 37 31 34 40 37 95 40
34 2 66 8 71 13 6 6 20 10 31 10 40 0 115 31 115 48 0 12 3 13 12 4 19 -19
103 -14 141 8 24 14 51 20 83 20 103 -3 135 16 136 83 1 48 15 67 48 67 19 0
33 7 40 21 7 12 18 18 26 15 19 -7 44 3 44 19 0 7 6 15 13 18 9 3 9 9 -2 29
-10 19 -11 34 -4 55 9 25 13 28 50 25 23 -2 44 1 48 7 10 18 19 13 77 -41 61
-58 70 -74 56 -100 -10 -20 -8 -20 62 -19 25 1 50 -2 55 -6 38 -29 52 -106 25
-138 -7 -9 -9 -22 -4 -32 4 -10 8 -22 8 -28 1 -10 27 -16 73 -17 32 0 39 -28
8 -28 -16 0 -25 -6 -25 -15 0 -18 -17 -20 -23 -2 -4 10 -7 10 -18 0 -11 -11
-11 -13 1 -13 11 0 10 -3 -2 -12 -16 -12 -22 -30 -19 -54 0 -6 12 -16 25 -22
26 -12 44 -61 26 -72 -7 -4 -11 -11 -10 -16 0 -5 -8 -10 -19 -12 -29 -5 -35
-33 -11 -56 17 -17 24 -19 39 -9 15 10 23 8 40 -8 23 -21 30 -84 10 -91 -9 -3
-8 -14 1 -43 19 -56 20 -97 4 -116 -14 -16 -9 -79 6 -79 11 0 18 -58 9 -67 -4
-5 -14 -21 -23 -37 -14 -27 -13 -30 15 -53 25 -22 43 -73 20 -59 -11 7 -61
-42 -61 -59 0 -8 -9 -10 -25 -7 -17 3 -27 -1 -31 -12 -8 -22 -4 -26 48 -37 23
-6 51 -20 62 -31 20 -21 20 -21 0 -34 -10 -7 -28 -20 -39 -28 l-20 -15 20 -1
c15 0 17 -2 7 -9 -12 -7 -11 -14 3 -40 12 -25 14 -39 6 -59 -7 -20 -10 -22
-10 -8 -1 17 -15 15 -16 -2 -3 -34 -19 -51 -55 -57 -22 -4 -42 -10 -45 -14 -2
-5 9 -20 25 -35 30 -26 39 -46 20 -46 -5 0 -18 -9 -28 -20 -10 -11 -27 -21
-38 -23 -37 -6 -64 -26 -57 -45 5 -14 3 -15 -8 -5 -16 15 -45 17 -54 3 -3 -5
-1 -19 5 -30 10 -19 12 -19 35 -4 21 14 24 14 33 -3 15 -26 -19 -69 -62 -76
-18 -3 -53 -17 -75 -32 -33 -20 -49 -24 -76 -19 -30 5 -35 4 -35 -14 0 -11 7
-26 16 -33 13 -11 17 -10 25 4 13 22 46 22 52 0 2 -10 -2 -30 -10 -45 -15 -32
-54 -43 -137 -39 -40 2 -56 0 -52 -8 4 -7 -1 -11 -13 -11 -12 0 -21 -5 -21
-11 0 -6 -8 -8 -19 -4 -27 8 -48 -21 -33 -46 7 -10 12 -24 12 -30 0 -18 -71
-82 -112 -101 -41 -18 -44 -49 -4 -47 11 0 15 3 8 6 -19 7 -5 22 17 16 24 -6
39 -41 31 -73 -5 -20 -13 -26 -44 -28 -51 -4 -88 -29 -84 -56 1 -12 -9 -32
-23 -46 -14 -14 -30 -33 -35 -41 -5 -8 -38 -25 -74 -36 l-65 -21 0 -45 c-1
-48 -20 -77 -54 -77 -11 0 -23 -5 -26 -10 -4 -6 -14 -9 -23 -8 -23 4 -45 -44
-33 -74 5 -12 9 -27 10 -33 1 -5 9 -21 18 -34 14 -22 14 -25 -12 -47 l-27 -23
28 -26 c15 -14 34 -23 41 -20 48 19 47 19 39 -6 -4 -13 -8 -30 -8 -38 -1 -8
-8 -16 -17 -18 -9 -3 -27 -18 -40 -35 -22 -27 -22 -31 -8 -46 14 -13 21 -14
43 -3 32 14 31 15 37 -27 6 -38 -4 -50 -61 -76 -32 -15 -44 -27 -53 -55 -14
-44 -34 -61 -72 -61 -29 0 -30 1 -24 46 5 49 -10 67 -38 44 -20 -17 -19 -40 2
-40 15 0 15 -2 -3 -14 -21 -15 -50 -20 -91 -18 -18 2 -22 9 -25 40 l-3 37 -62
3 c-35 2 -63 7 -63 11 0 5 -40 12 -89 15 -113 9 -129 20 -113 72 6 22 11 43
11 48 0 5 5 13 13 17 9 6 9 9 1 9 -6 0 -24 5 -40 12 -15 6 -35 12 -43 12 -16
2 -60 25 -47 26 4 0 -2 9 -13 20 -39 39 17 78 71 50 15 -8 25 -7 44 7 30 22
28 31 -13 49 -31 13 -33 12 -44 -11 -6 -14 -18 -25 -25 -25 -8 0 -11 4 -8 10
3 5 1 18 -4 27 -6 10 -11 14 -11 9 0 -17 -29 29 -30 47 0 23 41 40 55 23 11
-14 85 -9 85 5 0 5 11 19 25 31 14 12 25 27 25 35 0 7 -11 20 -25 29 -30 20
-32 31 -5 39 15 5 19 12 15 26 -4 11 -2 19 5 19 7 0 10 6 7 14 -4 11 1 14 21
12 30 -4 39 -20 22 -42 -7 -8 -9 -18 -5 -22 4 -4 10 -1 12 6 7 18 33 14 34 -5
0 -14 2 -13 9 5 5 12 14 22 19 22 5 0 18 18 29 41 l20 41 -20 20 c-12 12 -23
16 -27 11 -3 -6 -13 -10 -21 -11 -8 0 -28 -3 -45 -6 -16 -2 -45 3 -64 12 -30
14 -32 17 -15 23 10 4 15 8 10 8 -6 1 -1 7 10 15 15 11 19 25 17 61 -1 26 -6
52 -12 58 -8 8 -11 8 -11 -1 0 -6 -13 -10 -30 -9 -17 1 -30 8 -30 15 0 11 -13
12 -60 7 -33 -4 -60 -4 -60 -1 0 3 9 24 21 46 17 33 19 43 8 56 -22 27 -51 38
-60 23 -7 -11 -9 -10 -9 3 0 9 -6 18 -14 20 -19 4 -2 48 20 48 22 0 43 29 44
57 0 17 -11 28 -45 44 -46 22 -46 22 -43 68 2 34 7 47 21 49 12 3 17 -3 17
-19 l0 -22 20 23 c29 33 25 47 -15 54 -28 6 -35 11 -35 31 0 13 5 27 10 30 6
3 10 13 10 22 0 9 11 26 25 39 32 30 32 48 1 42 -28 -6 -36 7 -36 51 0 22 8
32 35 47 19 10 35 26 35 34 0 21 -20 40 -42 40 -36 0 -54 33 -61 111 -4 43
-15 90 -27 114 -11 21 -20 51 -20 66 0 27 -19 39 -66 39 -11 0 -35 7 -53 16
-22 11 -43 14 -69 9 -49 -9 -62 -21 -62 -58 0 -34 -19 -107 -32 -121 -13 -15
-10 -58 4 -50 8 5 9 -3 5 -31 -3 -20 -9 -40 -12 -43 -3 -4 -27 -5 -53 -4 -30
1 -62 -5 -89 -18 -24 -11 -50 -20 -58 -20 -9 0 -36 -5 -60 -11 -38 -10 -45
-16 -50 -43 -4 -17 -14 -42 -22 -54 -13 -21 -21 -23 -66 -21 -36 2 -60 -2 -77
-13 -20 -14 -46 -16 -140 -13 -63 1 -126 6 -140 9 -14 4 -46 0 -71 -7 -32 -10
-81 -13 -162 -10 -95 3 -123 1 -153 -13 -32 -15 -37 -15 -51 -2 -10 11 -24 13
-46 8 -18 -4 -50 -5 -72 -2 -22 2 -123 6 -225 9 -226 5 -239 5 -270 3 -14 -2
-99 1 -190 6 -91 5 -201 8 -244 7 -47 -2 -85 2 -92 8 -8 7 -28 9 -48 5 -22 -4
-49 -1 -76 10 -35 14 -48 15 -74 6 -40 -15 -96 -16 -96 -2 0 7 -22 8 -59 5
-63 -6 -91 8 -91 45 0 29 -56 70 -97 70 -55 0 -150 74 -140 109 6 25 -10 51
-31 51 -22 0 -54 53 -46 74 3 9 4 26 0 39 -6 27 -69 49 -141 49 -34 0 -49 4
-58 18 -17 29 -37 5 -37 -44 0 -22 -3 -57 -6 -77 -6 -35 -8 -37 -46 -37 -93
-2 -115 -22 -109 -98 2 -25 -4 -36 -26 -53 -15 -11 -32 -24 -38 -28 -14 -11
-58 -4 -67 10 -13 21 -19 -1 -24 -78 -2 -42 -6 -80 -9 -84 -10 -17 -8 -170 3
-197 11 -26 50 -54 76 -54 6 0 24 14 42 31 30 29 33 30 42 13 7 -12 7 -51 1
-108 -5 -50 -6 -98 -3 -108 3 -11 0 -26 -7 -34 -6 -8 -13 -24 -14 -37 -1 -12
-3 -25 -4 -29 -2 -10 -63 -7 -84 4 -9 5 -17 15 -17 23 0 8 -4 15 -9 15 -5 0
-7 -8 -4 -19 3 -10 0 -22 -5 -25 -6 -4 -9 -29 -6 -59 4 -45 1 -56 -21 -82 -21
-25 -27 -28 -35 -15 -8 12 -10 9 -10 -13 0 -36 -15 -27 -25 15 -6 24 -9 28
-12 15 -3 -13 -11 -17 -24 -14 -15 4 -23 -2 -30 -21 -7 -17 -7 -28 0 -30 12
-4 -4 -63 -21 -74 -7 -4 -9 -8 -4 -8 5 0 3 -6 -3 -14 -8 -10 -27 -12 -65 -9
-73 6 -96 -7 -96 -56 0 -35 -2 -38 -24 -34 -23 5 -24 6 -10 39 14 33 13 35 -8
43 -13 5 -27 6 -32 3 -5 -3 -15 3 -22 12 -11 16 -15 15 -46 -13 -32 -28 -38
-30 -91 -24 -57 6 -57 6 -57 -21 0 -32 -24 -82 -42 -88 -9 -3 -8 -11 5 -31 23
-36 22 -67 -2 -67 -21 0 -33 22 -25 45 4 9 -3 19 -20 26 -30 14 -33 24 -10 33
8 3 12 10 9 16 -4 6 1 25 10 42 19 39 9 52 -47 62 -34 6 -38 5 -38 -14 0 -11
5 -29 12 -39 9 -15 6 -25 -17 -55 -28 -36 -45 -46 -45 -24 0 6 -3 9 -6 5 -3
-3 -15 2 -26 13 -17 16 -18 21 -6 41 7 13 17 27 21 30 5 3 -5 21 -22 40 -17
18 -31 39 -31 46 0 20 -14 16 -39 -11 -27 -29 -58 -30 -73 -3 -5 11 -10 44 -9
75 0 30 -4 63 -10 74 -5 10 -7 24 -2 31 8 13 13 39 16 82 2 27 -1 30 -27 28
-40 -3 -43 -10 -23 -45 9 -16 15 -33 12 -38 -9 -15 -76 -42 -91 -36 -12 5 -14
-130 -14 -979 l0 -985 3625 0 3625 0 0 3620 0 3620 -2983 0 c-1641 0 -2987 -3
-2990 -7z m30 -999 c-3 -3 -12 -4 -19 -1 -8 3 -5 6 6 6 11 1 17 -2 13 -5z
m388 -4 c5 -8 11 -8 20 0 9 7 21 7 39 0 15 -5 38 -7 52 -4 17 4 32 -1 54 -20
17 -14 36 -23 44 -20 18 7 109 -41 124 -67 10 -16 20 -20 40 -16 15 3 56 -1
92 -8 43 -9 69 -10 77 -4 8 7 15 5 22 -9 7 -14 18 -18 40 -14 22 3 32 -1 40
-17 7 -12 19 -21 27 -21 28 0 79 -32 121 -77 37 -39 47 -44 90 -45 30 0 57 -8
74 -20 15 -11 32 -18 37 -14 6 3 13 2 17 -4 3 -5 17 -10 31 -10 13 0 24 -4 24
-9 0 -5 9 -13 20 -16 11 -3 20 -12 20 -20 0 -17 31 -27 68 -24 42 4 72 -10 83
-38 5 -14 12 -23 16 -20 3 4 19 -1 35 -9 16 -8 32 -12 37 -10 5 3 14 -1 21 -9
7 -8 19 -15 26 -15 8 0 14 -6 14 -13 0 -8 11 -23 24 -36 16 -15 22 -29 18 -46
-3 -20 1 -27 23 -35 15 -6 29 -19 32 -30 3 -11 17 -22 34 -25 20 -5 29 -13 29
-26 0 -10 5 -19 10 -19 6 0 10 -4 10 -10 0 -5 -6 -10 -14 -10 -7 0 -16 -10
-19 -22 -5 -18 -8 -19 -21 -8 -13 10 -16 10 -16 -2 0 -8 -22 -23 -49 -35 l-49
-21 0 -47 c1 -42 -3 -52 -31 -77 -24 -22 -41 -28 -75 -28 -36 0 -46 -4 -51
-20 -3 -11 -3 -25 0 -30 4 -6 0 -22 -9 -35 -9 -13 -16 -32 -16 -40 0 -13 -9
-16 -47 -12 -51 4 -97 -7 -124 -30 -19 -16 -58 -19 -106 -9 l-31 7 0 -43 c2
-71 -12 -85 -88 -94 -37 -3 -79 -13 -93 -20 -14 -8 -49 -14 -77 -14 -51 0 -74
-12 -74 -40 -1 -35 -15 -42 -60 -30 -28 8 -39 14 -31 19 10 6 9 10 -4 15 -28
10 -39 7 -26 -8 9 -11 7 -15 -11 -20 -35 -9 -96 -7 -103 3 -7 12 -55 7 -84 -9
-15 -7 -27 -8 -40 0 -29 15 -54 13 -48 -4 6 -16 -25 -54 -65 -80 -19 -13 -54
-18 -139 -20 -62 -2 -124 0 -137 3 -13 4 -50 2 -82 -3 -47 -8 -64 -6 -93 7
-19 9 -46 17 -58 17 -42 0 -106 33 -129 67 -13 18 -35 36 -49 39 -48 10 -94
39 -112 69 -10 17 -23 35 -28 42 -6 7 -11 15 -11 19 0 10 -49 54 -61 54 -18 0
-67 59 -74 89 -4 17 -11 31 -17 31 -15 0 -88 72 -105 104 -11 22 -14 44 -9 88
5 40 3 64 -4 73 -9 11 -9 23 0 49 6 18 12 76 14 127 2 91 27 179 50 179 4 0
26 19 47 41 26 28 39 51 39 69 0 26 22 60 75 115 11 11 39 29 62 39 24 10 45
27 48 36 3 9 24 23 46 30 26 9 62 35 97 71 31 32 59 56 63 53 4 -2 9 2 12 9 5
14 33 15 84 3 20 -5 51 -1 83 8 29 9 72 14 98 11 26 -2 70 -1 97 4 28 5 53 9
57 10 4 0 10 -4 13 -9z m2906 -64 c23 -8 43 -10 53 -4 9 5 23 5 33 0 27 -14
140 -25 146 -15 6 9 35 9 107 0 14 -2 36 0 50 4 19 5 34 0 55 -17 17 -13 38
-24 47 -24 10 0 22 -9 28 -20 12 -22 49 -27 67 -9 18 18 65 16 95 -4 16 -10
43 -17 65 -16 21 1 64 -6 97 -15 32 -9 63 -16 70 -14 9 1 93 -11 116 -17 31
-9 62 -29 80 -54 12 -17 27 -31 35 -31 7 0 15 -6 18 -14 3 -7 21 -16 40 -19
34 -5 94 -29 170 -68 36 -18 49 -27 82 -56 7 -7 17 -13 21 -13 4 0 12 -8 19
-17 7 -10 28 -18 48 -19 37 -3 93 -46 82 -63 -3 -6 -2 -11 4 -11 5 0 12 -8 16
-18 7 -25 45 -41 79 -35 18 4 34 -1 49 -14 31 -28 64 -44 85 -41 27 5 27 -45
-2 -102 -20 -39 -22 -50 -11 -50 14 0 20 -13 16 -34 -1 -5 3 -12 10 -16 22
-14 -1 -28 -41 -26 -22 1 -40 -1 -40 -6 0 -4 -4 -8 -10 -8 -5 0 -30 -15 -54
-34 -31 -23 -52 -32 -69 -29 -19 4 -26 0 -32 -19 -9 -27 -12 -39 -14 -54 -1
-15 -95 -76 -113 -73 -48 6 -100 -3 -118 -21 -11 -11 -26 -17 -35 -14 -11 5
-14 2 -9 -10 5 -14 2 -16 -20 -10 -24 6 -26 4 -26 -25 0 -24 -4 -31 -19 -31
-11 0 -22 -9 -26 -20 -10 -30 -67 -53 -114 -45 -29 5 -46 2 -65 -10 -14 -10
-23 -21 -20 -26 3 -5 -4 -23 -16 -39 -18 -25 -24 -28 -41 -19 -15 7 -34 7 -67
-1 -26 -6 -63 -15 -82 -19 -41 -10 -90 -31 -107 -47 -7 -7 -69 -11 -167 -11
-101 -1 -161 -5 -170 -12 -8 -7 -33 -11 -57 -11 -184 3 -258 1 -282 -5 -16 -4
-52 -3 -82 3 -35 7 -65 8 -88 1 -23 -6 -51 -6 -78 0 -29 7 -49 6 -63 -1 -15
-8 -41 -8 -96 1 -41 6 -93 13 -115 15 -72 5 -125 45 -125 93 0 12 -16 24 -53
39 -61 24 -87 65 -95 148 -3 28 -11 61 -19 73 -8 12 -12 31 -8 43 3 11 2 20
-3 20 -5 0 -8 10 -8 21 1 16 -8 25 -29 32 -64 21 -75 41 -75 138 0 50 -4 91
-10 94 -6 4 -10 14 -8 23 1 10 -1 23 -6 30 -4 7 -2 19 5 28 8 9 10 33 6 69 -3
30 -2 55 3 55 12 0 23 58 21 110 -2 62 30 109 89 131 28 10 47 25 52 39 15 39
40 53 205 111 45 16 89 26 97 23 8 -3 17 -1 21 5 3 6 31 11 61 11 60 0 94 13
94 35 0 19 32 36 110 56 80 21 95 22 141 5z m-1521 -2020 c0 -22 -17 -46 -32
-46 -12 0 -9 55 4 68 15 15 28 6 28 -22z m-147 6 c10 -10 14 -22 10 -25 -3 -4
-1 -7 5 -7 7 0 12 5 12 11 0 5 4 8 9 5 5 -3 7 -15 4 -27 -4 -13 -8 -16 -13
-10 -8 14 -37 5 -44 -15 -9 -24 -36 -16 -36 10 0 13 -5 26 -10 28 -11 3 25 48
39 48 4 0 15 -8 24 -18z m920 -42 c-3 -11 -7 -20 -9 -20 -2 0 -4 9 -4 20 0 11
4 20 9 20 5 0 7 -9 4 -20z m3324 -260 c1 -17 -2 -30 -7 -30 -6 0 -10 5 -10 11
0 7 -9 9 -24 5 -15 -4 -28 0 -36 9 -18 21 -3 35 38 35 34 0 37 -3 39 -30z
m-77 -1180 c0 -5 -4 -10 -10 -10 -5 0 -10 5 -10 10 0 6 5 10 10 10 6 0 10 -4
10 -10z m-5628 -306 c4 -17 3 -43 -3 -62 -11 -32 -12 -33 -64 -31 -45 2 -52 5
-47 21 2 10 9 18 16 18 6 0 25 20 41 45 34 50 45 52 57 9z m3060 -156 c6 -18
47 -16 64 3 9 10 28 19 41 19 16 0 22 4 17 13 -3 6 10 -5 30 -27 36 -37 45
-39 87 -22 27 12 51 -21 43 -58 -3 -17 -11 -34 -17 -38 -6 -4 -5 -19 5 -45 19
-49 5 -93 -29 -93 -13 0 -23 -5 -23 -11 0 -6 -7 -9 -15 -5 -25 9 -85 -22 -85
-44 0 -11 4 -20 9 -20 10 0 25 -48 22 -72 -1 -9 2 -19 8 -22 6 -4 4 -17 -4
-33 -23 -43 -2 -99 32 -86 22 9 81 -7 87 -22 4 -12 0 -14 -18 -9 -13 3 -27 1
-30 -5 -11 -16 -43 -13 -50 5 -9 24 -31 10 -28 -17 2 -15 -5 -32 -18 -44 -11
-10 -20 -23 -20 -30 0 -17 59 -57 75 -51 18 7 30 -13 17 -26 -6 -6 -34 -14
-62 -19 -60 -9 -105 5 -94 30 4 9 9 26 12 39 2 12 13 27 23 33 11 5 19 16 19
24 0 11 -13 15 -54 15 l-54 0 -4 -52 c-2 -29 0 -56 5 -59 16 -11 -63 -31 -91
-23 -15 4 -31 6 -35 5 -4 -1 -7 6 -5 16 4 20 -29 30 -45 14 -8 -8 -6 -11 7
-11 9 0 15 -4 11 -10 -3 -5 -12 -7 -19 -4 -8 3 -29 -1 -48 -9 -20 -8 -53 -13
-79 -10 -68 7 -82 5 -91 -11 -7 -12 -14 -11 -48 5 -26 13 -46 16 -57 11 -10
-5 -28 -14 -39 -20 -14 -7 -35 -7 -59 -2 -20 5 -58 7 -84 5 -88 -8 -236 -8
-274 0 -24 5 -48 3 -64 -4 -22 -10 -24 -16 -19 -46 4 -21 3 -35 -3 -35 -13 0
-21 14 -27 47 -3 15 -7 29 -9 31 -4 4 -52 5 -143 1 -38 -1 -67 2 -74 9 -15 15
-55 16 -63 2 -4 -6 -16 -8 -27 -4 -11 3 -46 8 -77 10 -91 5 -155 14 -161 22
-8 12 -89 34 -100 27 -6 -3 -10 1 -10 9 0 8 5 18 10 21 17 10 11 54 -9 64 -10
6 -49 10 -87 9 -38 0 -83 3 -100 7 -22 5 -34 2 -44 -10 -11 -13 -10 -20 8 -45
28 -37 28 -42 -6 -67 -20 -15 -33 -18 -51 -12 -20 8 -22 13 -16 52 4 23 14 48
23 55 14 11 14 12 0 12 -18 0 -54 49 -50 69 2 7 -3 11 -10 9 -7 -3 -13 -11
-13 -19 0 -19 -44 -49 -72 -49 -25 0 -56 27 -48 41 4 5 1 9 -4 9 -6 0 -11 7
-11 15 0 8 6 15 14 15 7 0 16 8 19 19 7 28 65 33 99 8 l28 -20 20 23 c15 17
17 26 9 37 -6 7 -18 13 -25 13 -8 0 -14 5 -14 10 0 17 -20 11 -45 -14 -23 -23
-44 -19 -30 4 4 7 -7 8 -33 4 -35 -5 -41 -3 -47 15 -8 25 -23 27 -32 5 -10
-26 -50 -36 -82 -19 -37 19 -44 38 -23 67 42 57 46 71 26 85 -11 8 -32 13 -49
11 -28 -3 -30 -6 -31 -48 0 -32 -5 -44 -14 -42 -7 2 -16 -2 -20 -9 -13 -19
-30 0 -30 33 0 26 2 29 15 18 21 -18 27 -8 15 24 -6 18 -19 28 -40 32 -26 6
-30 11 -30 40 0 52 16 80 51 93 30 10 35 9 60 -15 28 -27 69 -27 69 1 0 7 10
15 22 18 16 5 30 -2 51 -23 30 -30 77 -41 77 -17 0 6 12 17 26 24 21 10 29 10
41 -2 8 -8 19 -15 24 -15 6 0 17 -7 26 -16 14 -14 17 -13 27 8 14 29 46 31
108 8 47 -18 47 -17 68 5 24 26 72 39 82 22 3 -5 17 -11 30 -13 12 -1 25 -3
28 -3 3 -1 -2 -6 -10 -12 -13 -9 -13 -10 0 -6 8 2 15 8 15 13 1 36 80 50 92
17 16 -45 71 -52 85 -12 13 39 49 47 87 20 37 -27 37 -27 68 9 32 39 78 42 95
5 7 -16 19 -25 32 -24 21 0 21 1 1 9 -18 8 -17 9 6 9 15 1 38 10 52 21 33 26
38 25 72 -10 31 -33 50 -38 62 -16 10 17 47 36 69 36 10 0 25 -7 35 -16 16
-14 24 -15 68 -3 34 8 47 16 39 21 -8 5 9 8 40 6 28 -1 52 -5 52 -9 0 -4 15
-3 34 2 21 6 50 6 76 0 25 -6 54 -6 73 0 52 15 108 11 123 -8 11 -15 13 -15
14 -3 0 18 77 43 86 29 11 -19 45 -8 54 16 5 14 16 25 25 25 8 0 22 11 31 26
11 15 23 23 32 19 9 -3 19 0 24 7 6 10 12 9 23 -6 8 -10 16 -23 18 -29 5 -17
44 2 56 29 8 17 17 24 29 20 9 -3 24 -1 32 4 14 9 33 -5 42 -32z m2068 -23 c0
-8 -6 -15 -14 -15 -8 0 -16 7 -20 15 -4 10 1 15 14 15 11 0 20 -7 20 -15z
m-5292 -157 c19 -19 14 -44 -10 -61 -17 -12 -20 -18 -11 -24 6 -5 17 -29 24
-53 11 -42 10 -48 -17 -87 -29 -45 -32 -47 -58 -37 -18 7 -22 34 -5 34 7 0 9
9 6 21 -4 15 0 23 13 26 42 11 31 93 -13 93 -31 0 -42 11 -45 46 -3 29 -1 30
27 26 22 -3 33 0 37 12 7 19 35 21 52 4z m-138 -168 c0 -12 -9 -22 -24 -26
-32 -8 -45 1 -39 26 8 28 63 29 63 0z m4140 -40 c-13 -8 -12 -10 3 -10 19 0
23 -15 7 -25 -15 -9 -40 14 -33 31 3 8 13 14 22 14 14 0 14 -2 1 -10z m-3060
-90 c13 -8 13 -10 1 -10 -11 0 -10 -4 4 -14 18 -13 18 -15 -11 -39 -16 -15
-33 -27 -38 -27 -4 0 -6 -7 -3 -15 8 -19 -10 -30 -28 -15 -19 16 -15 49 12 93
24 38 37 44 63 27z m3060 -37 c-1 -26 -50 -53 -50 -28 0 8 7 15 15 15 8 0 15
5 15 10 0 6 5 10 10 10 6 0 10 -3 10 -7z m-2582 -156 c4 -35 -13 -57 -44 -57
-19 0 -24 5 -24 27 0 30 28 63 50 60 8 -1 16 -15 18 -30z m-2375 -2 c-7 -21
-13 -19 -13 6 0 11 4 18 10 14 5 -3 7 -12 3 -20z m1897 -7 c0 -19 -2 -20 -10
-8 -13 19 -13 30 0 30 6 0 10 -10 10 -22z m155 -7 c-3 -11 -12 -18 -20 -15 -7
3 -15 -2 -18 -13 -4 -15 -5 -14 -6 4 0 12 9 29 21 37 26 18 32 15 23 -13z
m2405 -4 c0 -7 -9 -18 -21 -25 -18 -12 -20 -11 -17 5 2 10 10 17 16 16 7 -2
12 2 12 7 0 6 2 10 5 10 3 0 5 -6 5 -13z m335 -18 c11 -17 -1 -21 -15 -4 -8 9
-8 15 -2 15 6 0 14 -5 17 -11z m-2920 -19 c3 -6 -1 -7 -9 -4 -18 7 -21 14 -7
14 6 0 13 -4 16 -10z m3842 -442 c-3 -8 -6 -5 -6 6 -1 11 2 17 5 13 3 -3 4
-12 1 -19z"/>
<path d="M1551 5811 c-8 -5 -11 -16 -7 -29 8 -24 -10 -68 -43 -104 -36 -40
-35 -68 1 -68 15 0 28 -5 28 -11 0 -5 -4 -8 -9 -4 -5 3 -12 1 -16 -5 -3 -5 0
-10 7 -10 7 0 -4 -12 -25 -27 -20 -14 -37 -35 -37 -45 0 -11 5 -16 10 -13 6 3
10 1 10 -5 0 -6 11 -15 25 -20 23 -9 25 -15 25 -67 0 -41 6 -68 21 -92 18 -29
24 -33 51 -27 18 3 39 13 48 21 9 8 26 15 39 15 13 0 25 9 31 24 5 13 22 33
39 46 20 13 31 30 31 45 0 13 4 35 10 49 12 32 13 78 4 132 -5 32 -13 45 -33
54 -14 7 -32 15 -40 19 -14 7 -55 79 -65 114 -4 13 -16 17 -48 17 -24 0 -49
-4 -57 -9z"/>
<path d="M4557 5714 c-3 -3 -3 -17 -1 -32 7 -37 -2 -67 -32 -99 -19 -21 -24
-34 -20 -58 3 -18 0 -37 -9 -49 -8 -11 -15 -27 -15 -37 0 -9 -7 -20 -16 -23
-11 -4 -13 -13 -8 -28 3 -13 11 -24 15 -26 5 -2 9 -12 9 -23 0 -10 6 -19 14
-19 8 0 21 -24 32 -60 10 -34 23 -65 29 -69 22 -18 63 -21 75 -6 7 8 17 12 22
9 12 -8 67 44 79 73 5 13 21 31 36 41 16 9 29 24 31 31 18 83 21 115 12 127
-6 7 -10 23 -9 36 4 45 -2 55 -46 83 -45 29 -48 35 -58 115 -2 11 -18 16 -68
17 -37 1 -69 0 -72 -3z"/>
<path d="M4370 2068 c0 -30 25 -39 48 -16 20 20 13 36 -18 40 -27 4 -30 2 -30
-24z"/>
<path d="M4546 2087 c-15 -11 -17 -17 -7 -35 15 -28 25 -28 40 2 21 39 1 58
-33 33z"/>
<path d="M4723 2089 c-24 -9 -27 -21 -13 -54 l9 -20 1 20 c1 11 4 14 7 8 10
-25 33 -14 33 16 0 36 -8 41 -37 30z"/>
<path d="M4225 2061 c-3 -5 -1 -12 5 -16 5 -3 10 1 10 9 0 18 -6 21 -15 7z"/>
<path d="M2765 2010 c-3 -5 -1 -10 4 -10 6 0 11 5 11 10 0 6 -2 10 -4 10 -3 0
-8 -4 -11 -10z"/>
<path d="M2283 1963 c-16 -6 -17 -67 -3 -94 15 -27 39 -24 50 6 14 38 -18 98
-47 88z"/>
<path d="M2460 1889 c0 -33 3 -40 12 -31 18 18 19 48 3 62 -13 11 -15 6 -15
-31z"/>
<path d="M4540 1908 c-12 -13 -16 -26 -11 -31 13 -13 47 -3 43 12 -1 7 7 15
18 18 28 7 25 23 -5 23 -13 0 -33 -10 -45 -22z"/>
<path d="M2760 1906 c0 -18 30 -30 43 -17 5 5 6 14 3 20 -10 16 -46 13 -46 -3z"/>
<path d="M4206 1911 c-3 -4 0 -16 7 -25 12 -16 14 -16 26 -2 7 8 10 20 6 26
-8 12 -32 13 -39 1z"/>
<path d="M4381 1911 c-11 -7 -11 -13 0 -32 11 -20 14 -21 17 -6 6 29 -2 47
-17 38z"/>
<path d="M2595 1770 c-4 -6 -2 -17 4 -24 6 -7 8 -16 4 -19 -12 -13 27 -18 40
-5 13 11 11 16 -10 35 -27 26 -29 27 -38 13z"/>
<path d="M2756 1762 c-7 -12 33 -44 44 -37 14 8 -7 45 -25 45 -7 0 -16 -4 -19
-8z"/>
<path d="M4208 1743 c-3 -10 4 -27 14 -37 10 -11 18 -15 18 -10 0 6 -6 16 -12
23 -10 11 -10 14 0 18 16 6 15 23 -2 23 -7 0 -16 -8 -18 -17z"/>
<path d="M4368 1735 c-3 -13 -2 -29 2 -36 10 -16 33 -1 26 17 -4 9 2 14 15 14
30 0 18 24 -13 27 -20 1 -27 -4 -30 -22z"/>
<path d="M4536 1735 c-7 -27 0 -49 13 -41 11 7 12 66 1 66 -4 0 -11 -11 -14
-25z"/>
<path d="M2915 1741 c-6 -11 9 -23 19 -14 9 9 7 23 -3 23 -6 0 -12 -4 -16 -9z"/>
<path d="M2920 1589 c0 -16 29 -41 40 -34 5 3 2 14 -8 25 -18 22 -32 26 -32 9z"/>
<path d="M4377 1587 c-20 -14 -15 -42 9 -51 19 -7 27 14 17 42 -7 19 -11 21
-26 9z"/>
<path d="M4187 1583 c-11 -10 -8 -35 2 -28 5 3 12 -4 16 -15 8 -24 21 -26 29
-4 13 34 7 54 -17 54 -13 0 -27 -3 -30 -7z"/>
<path d="M4040 1570 c0 -5 6 -10 14 -10 8 0 18 5 21 10 3 6 -3 10 -14 10 -12
0 -21 -4 -21 -10z"/>
<path d="M560 7099 c0 -5 5 -7 10 -4 6 3 10 8 10 11 0 2 -4 4 -10 4 -5 0 -10
-5 -10 -11z"/>
<path d="M665 6580 c3 -5 8 -10 11 -10 2 0 4 5 4 10 0 6 -5 10 -11 10 -5 0 -7
-4 -4 -10z"/>
<path d="M3520 4060 c0 -5 5 -10 10 -10 6 0 10 5 10 10 0 6 -4 10 -10 10 -5 0
-10 -4 -10 -10z"/>
<path d="M745 4000 c-3 -5 3 -10 14 -10 12 0 21 5 21 10 0 6 -6 10 -14 10 -8
0 -18 -4 -21 -10z"/>
<path d="M2762 3908 c2 -18 12 -43 22 -55 18 -21 21 -21 36 -8 9 8 26 15 38
15 23 0 27 8 14 25 -7 10 -94 55 -106 55 -4 0 -6 -15 -4 -32z"/>
<path d="M3445 3900 c-3 -5 1 -10 9 -10 9 0 16 5 16 10 0 6 -4 10 -9 10 -6 0
-13 -4 -16 -10z"/>
<path d="M2461 3731 c-17 -11 -4 -34 26 -49 30 -13 47 -4 41 24 -3 19 -49 36
-67 25z"/>
<path d="M2540 3710 c0 -5 5 -10 10 -10 6 0 10 5 10 10 0 6 -4 10 -10 10 -5 0
-10 -4 -10 -10z"/>
<path d="M2330 3390 c0 -5 5 -10 11 -10 5 0 7 5 4 10 -3 6 -8 10 -11 10 -2 0
-4 -4 -4 -10z"/>
<path d="M2445 2921 c-8 -26 14 -71 36 -71 31 0 31 30 0 61 -27 27 -30 28 -36
10z"/>
<path d="M7014 2915 c-9 -22 9 -37 37 -33 16 2 24 10 24 23 0 26 -52 35 -61
10z"/>
<path d="M2174 2914 c-12 -5 -6 -64 6 -64 4 0 10 9 13 20 3 11 13 20 23 20 16
0 16 1 -2 15 -20 15 -23 16 -40 9z"/>
<path d="M2303 2890 c0 -34 0 -34 44 -18 40 14 42 25 7 38 -41 16 -51 12 -51
-20z"/>
<path d="M3121 2704 c0 -11 3 -14 6 -6 3 7 2 16 -1 19 -3 4 -6 -2 -5 -13z"/>
<path d="M6870 2490 c-9 -6 -10 -10 -3 -10 6 0 15 5 18 10 8 12 4 12 -15 0z"/>
<path d="M1043 2413 c-7 -3 -13 -20 -13 -39 0 -41 25 -47 42 -9 9 21 9 28 -3
39 -8 8 -20 12 -26 9z"/>
<path d="M900 2396 c0 -9 30 -14 35 -6 4 6 -3 10 -14 10 -12 0 -21 -2 -21 -4z"/>
<path d="M5350 2393 c1 -11 26 -43 34 -43 3 0 6 11 6 25 0 18 -5 25 -20 25
-11 0 -20 -3 -20 -7z"/>
<path d="M1210 2245 c-13 -34 -8 -40 19 -25 25 13 26 23 6 40 -12 10 -16 8
-25 -15z"/>
<path d="M5365 2250 c-4 -6 -11 -8 -16 -5 -5 4 -9 -3 -9 -15 0 -12 5 -18 10
-15 6 3 10 1 10 -4 0 -16 33 -13 56 4 19 15 19 15 0 30 -23 17 -42 19 -51 5z"/>
<path d="M5520 2235 c0 -8 5 -15 10 -15 6 0 10 -7 10 -15 0 -16 15 -21 23 -7
5 7 -27 52 -37 52 -3 0 -6 -7 -6 -15z"/>
<path d="M5357 2099 c-20 -12 -22 -40 -5 -57 30 -30 94 1 68 34 -21 25 -44 33
-63 23z"/>
<path d="M1 2061 c-1 -27 2 -32 11 -23 8 8 8 17 0 34 -10 22 -11 21 -11 -11z"/>
<path d="M5514 2076 c-19 -15 -19 -15 1 -30 11 -8 25 -16 31 -16 15 0 25 26
18 45 -8 19 -25 19 -50 1z"/>
<path d="M1042 2053 c4 -32 17 -38 43 -19 16 12 17 16 6 30 -7 9 -22 16 -33
16 -15 0 -19 -6 -16 -27z"/>
<path d="M5552 1933 c-9 -14 -13 -15 -26 -4 -13 11 -19 11 -31 1 -29 -24 -12
-78 28 -93 11 -4 15 -12 11 -19 -5 -8 -2 -9 10 -5 10 4 20 7 22 7 3 0 2 15 -2
34 -5 28 -2 37 15 48 26 16 26 24 2 38 -16 8 -22 6 -29 -7z"/>
<path d="M5692 1908 c-12 -12 -17 -58 -6 -58 12 0 33 34 34 53 0 20 -11 22
-28 5z"/>
<path d="M5694 1769 c-27 -9 -42 -31 -26 -37 7 -2 12 -10 12 -18 0 -25 29 -15
45 16 8 16 15 31 15 33 0 10 -26 14 -46 6z"/>
<path d="M5850 1750 c-11 -7 -10 -11 4 -26 16 -15 19 -15 33 -1 14 14 13 16
-4 25 -11 6 -25 7 -33 2z"/>
<path d="M6035 1750 c-3 -6 -17 -7 -31 -4 -32 8 -31 -9 3 -31 25 -17 27 -17
40 1 7 10 13 24 13 31 0 15 -16 17 -25 3z"/>
<path d="M5501 1587 c-15 -18 9 -50 34 -46 24 5 28 37 5 49 -24 13 -25 13 -39
-3z"/>
<path d="M5685 1591 c-3 -6 -3 -11 2 -11 4 0 1 -4 -7 -10 -24 -15 -6 -21 23
-7 15 6 25 17 24 22 -5 14 -34 18 -42 6z"/>
<path d="M5853 1589 c-27 -10 -30 -24 -7 -33 25 -10 41 -7 47 8 8 21 -14 35
-40 25z"/>
<path d="M5837 1408 c-4 -12 -4 -24 -1 -27 8 -9 37 27 30 38 -11 17 -23 13
-29 -11z"/>
<path d="M5511 1401 c-8 -5 -11 -16 -8 -25 10 -25 27 -19 27 9 0 28 0 28 -19
16z"/>
<path d="M5480 1245 c0 -8 -6 -14 -12 -12 -7 1 -13 -4 -13 -10 0 -7 3 -12 6
-10 3 1 14 -4 23 -12 15 -13 20 -12 38 6 12 13 18 28 15 37 -8 21 -57 21 -57
1z"/>
</g>
</svg>
