<svg width="30" height="30" viewBox="0 0 30 30" fill="none" xmlns="http://www.w3.org/2000/svg">
<path d="M5.625 24.375H7L20.8438 10.5312L19.4688 9.15625L5.625 23V24.375ZM24.8125 9.1875L20.8125 5.1875L22.125 3.875C22.4792 3.52083 22.9167 3.34375 23.4375 3.34375C23.9583 3.34375 24.3958 3.52083 24.75 3.875L26.125 5.25C26.4792 5.60417 26.6562 6.04167 26.6562 6.5625C26.6562 7.08333 26.4792 7.52083 26.125 7.875L24.8125 9.1875ZM23.5 10.5L7.75 26.25H3.75V22.25L19.5 6.5L23.5 10.5ZM20.1562 9.84375L19.4688 9.15625L20.8438 10.5312L20.1562 9.84375Z" fill="black"/>
</svg>
